<svg xmlns="http://www.w3.org/2000/svg" xmlns:xlink="http://www.w3.org/1999/xlink" viewBox="0 0 1920 1080"><defs><style>.cls-1{isolation:isolate;}.cls-2{fill:#ffcf4d;}.cls-3{opacity:0.37;}.cls-3,.cls-4{mix-blend-mode:overlay;}.cls-4{opacity:0.19;}.cls-5{fill:#fbf9eb;}.cls-6{fill:#58ead3;}.cls-7{fill:#28d4bf;}.cls-8{fill:#11b7a3;}.cls-9{fill:#089486;}.cls-10{fill:#0e766d;}.cls-11{fill:#125d58;}.cls-12{fill:#99c0f0;}.cls-13{fill:#39baf9;}.cls-14{fill:#1a9cf1;}.cls-15{fill:#0d7fc6;}.cls-16{fill:#026a9e;}.cls-17{fill:#085788;}.cls-18{fill:#c5b5fc;}.cls-19{fill:#a68bfa;}.cls-20{fill:#8d5afe;}.cls-21{fill:#773ceb;}.cls-22{fill:#6c29d9;}.cls-23{fill:#5525af;}.cls-24{fill:#f9d9a6;}.cls-25{fill:#ffb677;}.cls-26{fill:#f49146;}.cls-27{fill:#f57319;}.cls-28{fill:#de5b08;}.cls-29{fill:#c0410c;}.cls-30{fill:#faa4a0;}.cls-31{fill:#f86f6b;}.cls-32{fill:#ea4546;}.cls-33{fill:#d62821;}.cls-34{fill:#ba1b1c;}.cls-35{fill:#92201a;}.cls-36{fill:#32526e;}.cls-37,.cls-40,.cls-42{fill:#383838;}.cls-38{fill:#10b780;}.cls-39{fill:#1651da;}.cls-40{font-size:61.33px;}.cls-40,.cls-42{font-family:OpenSans-Bold, Open Sans;font-weight:700;}.cls-41{fill:url(#linear-gradient);}.cls-42{font-size:72.43px;}</style><linearGradient id="linear-gradient" x1="1267.39" y1="630.32" x2="1798.45" y2="630.32" gradientUnits="userSpaceOnUse"><stop offset="0"/><stop offset="1" stop-color="#fff"/></linearGradient></defs><g class="cls-1"><g id="Hex"><rect class="cls-2" width="1920" height="1080"/><polygon class="cls-3" points="1054.19 203.17 1920.23 702.57 1920 1080 0 1080 0.23 556.53 125.85 485.04 1054.19 203.17"/><path class="cls-4" d="M403.66,1020.4l-275.32-7.56,48.33-509.28c4.17-43.91,69.18-77.81,145.21-75.73h0c76,2.09,134.28,39.38,130.11,83.29Z"/><path class="cls-5" d="M424.93,1011.09l-275.32-7.56L197,504.12c4.17-43.91,69.18-77.82,145.21-75.73h0c76,2.09,134.28,39.38,130.11,83.29Z"/><polygon class="cls-6" points="411.38 1002.31 164.76 995.54 172.1 918.2 418.72 924.97 411.38 1002.31"/><polygon class="cls-7" points="419.16 920.32 172.54 913.54 179.88 836.21 426.5 842.98 419.16 920.32"/><polygon class="cls-8" points="426.94 838.32 180.32 831.55 187.66 754.22 434.28 760.99 426.94 838.32"/><polygon class="cls-9" points="434.73 756.33 188.11 749.56 195.45 672.23 442.06 679 434.73 756.33"/><polygon class="cls-10" points="442.51 674.34 195.89 667.57 203.23 590.23 449.85 597 442.51 674.34"/><polygon class="cls-11" points="450.29 592.35 203.67 585.58 211.01 508.24 457.63 515.01 450.29 592.35"/><path class="cls-4" d="M618,993.36l-270.56,31.83L177.19,525.63c-14.68-43.07,34-85.11,108.7-93.9h0c74.71-8.79,147.18,19,161.86,62.07Z"/><path class="cls-5" d="M634.71,981.33l-270.56,31.83-167-489.88c-14.68-43.07,34-85.12,108.7-93.9h0c74.71-8.79,147.18,19,161.86,62.07Z"/><polygon class="cls-12" points="617.8 974.76 375.44 1003.27 349.59 927.41 591.95 898.9 617.8 974.76"/><polygon class="cls-13" points="590.39 894.34 348.03 922.85 322.18 846.99 564.53 818.48 590.39 894.34"/><polygon class="cls-14" points="562.98 813.91 320.62 842.42 294.76 766.56 537.12 738.05 562.98 813.91"/><polygon class="cls-15" points="535.56 733.48 293.21 761.99 267.35 686.13 509.71 657.62 535.56 733.48"/><polygon class="cls-16" points="508.15 653.05 265.8 681.56 239.94 605.71 482.29 577.2 508.15 653.05"/><polygon class="cls-17" points="480.74 572.63 238.38 601.13 212.53 525.28 454.88 496.77 480.74 572.63"/><path class="cls-4" d="M891.08,906.24l-235.92,83.4L198,555.35c-39.42-37.44-18.56-86.47,46.59-109.5h0c65.14-23,149.91-11.34,189.32,26.11Z"/><path class="cls-5" d="M901.74,890.93l-235.91,83.4L217.53,548.45C178.11,511,199,462,264.12,439h0c65.14-23,149.91-11.34,189.32,26.1Z"/><polygon class="cls-18" points="881.91 888.12 670.6 962.83 601.18 896.88 812.49 822.18 881.91 888.12"/><polygon class="cls-19" points="808.31 818.2 596.99 892.91 527.58 826.96 738.89 752.26 808.31 818.2"/><polygon class="cls-20" points="734.71 748.28 523.39 822.99 453.98 757.04 665.29 682.34 734.71 748.28"/><polygon class="cls-21" points="661.11 678.37 449.79 753.07 380.37 687.12 591.69 612.42 661.11 678.37"/><polygon class="cls-22" points="587.51 608.45 376.19 683.15 306.77 617.2 518.09 542.5 587.51 608.45"/><polygon class="cls-23" points="513.91 538.53 302.59 613.23 233.17 547.28 444.49 472.58 513.91 538.53"/><path class="cls-4" d="M1130.9,732.56,975.3,864.63,246.26,580c-62.86-24.54-79-74-36-110.47h0c43-36.47,128.75-46.14,191.61-21.6Z"/><path class="cls-5" d="M1128.27,717.28,972.67,849.36,257.76,570.22c-62.86-24.55-79-74-36-110.48h0c43-36.47,128.76-46.14,191.62-21.6Z"/><polygon class="cls-24" points="1108.15 719.48 968.77 837.78 858.07 794.56 997.45 676.25 1108.15 719.48"/><polygon class="cls-25" points="990.78 673.65 851.4 791.96 740.7 748.73 880.08 630.43 990.78 673.65"/><polygon class="cls-26" points="873.41 627.82 734.03 746.13 623.32 702.9 762.7 584.6 873.41 627.82"/><polygon class="cls-27" points="756.03 581.99 616.65 700.3 505.95 657.07 645.33 538.77 756.03 581.99"/><polygon class="cls-28" points="638.66 536.16 499.28 654.47 388.57 611.25 527.96 492.94 638.66 536.16"/><polygon class="cls-29" points="521.29 490.34 381.91 608.64 271.2 565.42 410.58 447.11 521.29 490.34"/><path class="cls-4" d="M1056.79,201.76l127,140.75L400.1,580.74c-67.57,20.54-150.8,5.68-185.88-33.19h0c-35.08-38.87-8.74-87,58.83-107.56Z"/><path class="cls-5" d="M1035,197l127.06,140.75L393.52,571.4c-67.58,20.54-150.8,5.68-185.89-33.19h0c-35.09-38.86-8.75-87,58.83-107.56Z"/><polygon class="cls-30" points="1028.73 208.3 1142.55 334.38 1023.53 370.55 909.72 244.48 1028.73 208.3"/><polygon class="cls-31" points="902.55 246.66 1016.36 372.73 897.35 408.9 783.54 282.83 902.55 246.66"/><polygon class="cls-32" points="776.37 285.01 890.18 411.08 771.17 447.26 657.36 321.18 776.37 285.01"/><polygon class="cls-33" points="650.19 323.36 764 449.44 644.99 485.61 531.18 359.54 650.19 323.36"/><polygon class="cls-34" points="524.01 361.71 637.82 487.79 518.81 523.97 405 397.89 524.01 361.71"/><polygon class="cls-35" points="397.83 400.07 511.64 526.14 392.63 562.32 278.82 436.24 397.83 400.07"/><ellipse class="cls-36" cx="263.85" cy="521.38" rx="23.22" ry="13.41" transform="translate(-3.28 1.67) rotate(-0.36)"/><path class="cls-37" d="M999.67,174.14,963,148.45,993.7,104.6a22.39,22.39,0,0,1,31.18-5.5h0a22.39,22.39,0,0,1,5.5,31.18Z"/><path class="cls-5" d="M866.29,333a7.41,7.41,0,0,1-6.06-11.66l11.37-16.25a28.85,28.85,0,0,0,5.06-19.68,26.18,26.18,0,0,1,4.59-17.84L957.4,158.79l5.92-8.46,34.47,24.14-5.93,8.46L915.71,291.66a26.18,26.18,0,0,1-15.2,10.42,28.87,28.87,0,0,0-16.77,11.48L872.37,329.8a7.42,7.42,0,0,1-4.78,3.05A8.05,8.05,0,0,1,866.29,333Z"/><path class="cls-37" d="M963.65,152.21l32.26,22.59-5.15,7.36L947.48,244l-32.87,46.94a24.91,24.91,0,0,1-14.42,9.88,30.19,30.19,0,0,0-17.55,12L871.26,329a6,6,0,0,1-3.91,2.49,6.23,6.23,0,0,1-1.06.09,6.07,6.07,0,0,1-5-9.54l11.37-16.24a30.26,30.26,0,0,0,5.3-20.6,24.84,24.84,0,0,1,4.35-16.93L889.54,258l69-98.46,5.15-7.36m-.66-3.76-6.7,9.57-69,98.47-7.19,10.26a27.53,27.53,0,0,0-4.82,18.77,27.52,27.52,0,0,1-4.83,18.76l-11.37,16.24a8.77,8.77,0,0,0,7.17,13.79,8.62,8.62,0,0,0,1.53-.14,8.73,8.73,0,0,0,5.65-3.6l11.38-16.24a27.46,27.46,0,0,1,16-10.94,27.64,27.64,0,0,0,16-10.95l32.87-46.94L993,183.7l6.7-9.56L963,148.45Z"/><path class="cls-37" d="M994.56,184.82,954.69,156.9a11.68,11.68,0,0,1-2.86-16.27h0a11.68,11.68,0,0,1,16.27-2.86L1008,165.69a11.68,11.68,0,0,1,2.87,16.27h0A11.68,11.68,0,0,1,994.56,184.82Z"/><path class="cls-37" d="M949.69,245.5l-32.87,46.94a27.64,27.64,0,0,1-16,10.95,27.46,27.46,0,0,0-16,10.94l-11.38,16.24a8.76,8.76,0,0,1-14.35-10.05l11.37-16.24a27.52,27.52,0,0,0,4.83-18.76,27.53,27.53,0,0,1,4.82-18.77l7.19-10.26Z"/><circle class="cls-33" cx="1317" cy="728.44" r="28.68"/><circle class="cls-38" cx="1317" cy="855.98" r="28.68"/><circle class="cls-39" cx="1317" cy="983.74" r="28.68"/><text class="cls-40" transform="translate(1369.58 750.2)">R:</text><text class="cls-40" transform="translate(1369.58 880.51)">G:</text><text class="cls-40" transform="translate(1369.58 1004.36)">B:</text><rect class="cls-5" x="1452.45" y="682.23" width="325.07" height="92.42" rx="19.45"/><rect class="cls-5" x="1452.45" y="809.77" width="325.07" height="92.42" rx="19.45"/><rect class="cls-5" x="1452.45" y="937.53" width="325.07" height="92.42" rx="19.45"/><text class="cls-40" transform="translate(1484.32 749.05)">F8 = 248</text><text class="cls-40" transform="translate(1484.32 880.51)">6F = 111</text><text class="cls-40" transform="translate(1484.32 1005.6)">6B = 107</text><path class="cls-39" d="M1750.82,481.55a275.21,275.21,0,0,1-217.9,106.79V493.73a179.85,179.85,0,0,0,128-53,182.88,182.88,0,0,0,15.06-17Z"/><path class="cls-38" d="M1808.61,312.65a274.41,274.41,0,0,1-57.79,168.9L1676,423.66a181.47,181.47,0,0,0,16-197.57l83.08-45.18A274.36,274.36,0,0,1,1808.61,312.65Z"/><path class="cls-32" d="M1775.15,180.91l-83.08,45.18A181.79,181.79,0,0,0,1661,184.6a181.08,181.08,0,1,0-128,309.13v94.61c-152.26,0-275.69-123.43-275.69-275.69S1380.66,37,1532.92,37A275.63,275.63,0,0,1,1775.15,180.91Z"/><circle class="cls-31" cx="1532.92" cy="312.65" r="97.99"/><rect class="cls-41" x="1267.39" y="623.94" width="531.06" height="12.77" rx="6.38"/><rect class="cls-5" x="1573.51" y="617.55" width="56.68" height="26.04" rx="13.02"/><rect class="cls-5" x="467.72" y="55.95" width="452.68" height="138.26" rx="26.84"/><circle class="cls-31" cx="535.74" cy="125.08" r="35.68"/><text class="cls-42" transform="translate(595.2 151.67)">#F86F6B</text><polygon class="cls-5" points="780.19 186.34 868.98 238.04 830.77 187.46 780.19 186.34"/></g></g></svg>